<svg xmlns="http://www.w3.org/2000/svg" xmlns:xlink="http://www.w3.org/1999/xlink" width="400" zoomAndPan="magnify" viewBox="0 0 810 809.999993" height="400" preserveAspectRatio="xMidYMid meet" version="1.0"><defs><g/><clipPath id="83cc822b5c"><path d="M 129.191406 172.496094 L 224.847656 172.496094 L 224.847656 268.152344 L 129.191406 268.152344 Z M 129.191406 172.496094 " clip-rule="nonzero"/></clipPath><clipPath id="164c187920"><path d="M 177.019531 172.496094 C 150.601562 172.496094 129.191406 193.910156 129.191406 220.324219 C 129.191406 246.738281 150.601562 268.152344 177.019531 268.152344 C 203.433594 268.152344 224.847656 246.738281 224.847656 220.324219 C 224.847656 193.910156 203.433594 172.496094 177.019531 172.496094 Z M 177.019531 172.496094 " clip-rule="nonzero"/></clipPath><clipPath id="96204d681b"><path d="M 172 203.257812 L 205 203.257812 L 205 237 L 172 237 Z M 172 203.257812 " clip-rule="nonzero"/></clipPath><clipPath id="2b55b24e2d"><path d="M 196 217 L 220.164062 217 L 220.164062 237 L 196 237 Z M 196 217 " clip-rule="nonzero"/></clipPath><clipPath id="5db2edbfa9"><path d="M 148 173 L 197 173 L 197 274 L 148 274 Z M 148 173 " clip-rule="nonzero"/></clipPath><clipPath id="ab69836783"><path d="M 229.765625 223.121094 L 154.972656 274.523438 L 120.140625 223.835938 L 194.933594 172.4375 Z M 229.765625 223.121094 " clip-rule="nonzero"/></clipPath><clipPath id="81b26131ed"><path d="M 229.765625 223.121094 L 154.972656 274.523438 L 120.140625 223.835938 L 194.933594 172.4375 Z M 229.765625 223.121094 " clip-rule="nonzero"/></clipPath><clipPath id="6cb0c3149a"><path d="M 146.671875 206.34375 L 154.398438 206.34375 L 154.398438 214.070312 L 146.671875 214.070312 Z M 146.671875 206.34375 " clip-rule="nonzero"/></clipPath><clipPath id="9df06de4b0"><path d="M 150.535156 206.34375 C 148.402344 206.34375 146.671875 208.070312 146.671875 210.207031 C 146.671875 212.339844 148.402344 214.070312 150.535156 214.070312 C 152.667969 214.070312 154.398438 212.339844 154.398438 210.207031 C 154.398438 208.070312 152.667969 206.34375 150.535156 206.34375 Z M 150.535156 206.34375 " clip-rule="nonzero"/></clipPath><clipPath id="3d8c09e6e7"><path d="M 145.253906 188.839844 L 149.382812 188.839844 L 149.382812 192.96875 L 145.253906 192.96875 Z M 145.253906 188.839844 " clip-rule="nonzero"/></clipPath><clipPath id="24be99a79d"><path d="M 147.316406 188.839844 C 146.175781 188.839844 145.253906 189.765625 145.253906 190.90625 C 145.253906 192.042969 146.175781 192.96875 147.316406 192.96875 C 148.457031 192.96875 149.382812 192.042969 149.382812 190.90625 C 149.382812 189.765625 148.457031 188.839844 147.316406 188.839844 Z M 147.316406 188.839844 " clip-rule="nonzero"/></clipPath><clipPath id="eedc1f5a64"><path d="M 140 242.078125 L 145.695312 242.078125 L 145.695312 247.773438 L 140 247.773438 Z M 140 242.078125 " clip-rule="nonzero"/></clipPath><clipPath id="e430fffcf4"><path d="M 142.847656 242.078125 C 141.273438 242.078125 140 243.351562 140 244.925781 C 140 246.5 141.273438 247.773438 142.847656 247.773438 C 144.421875 247.773438 145.695312 246.5 145.695312 244.925781 C 145.695312 243.351562 144.421875 242.078125 142.847656 242.078125 Z M 142.847656 242.078125 " clip-rule="nonzero"/></clipPath><clipPath id="769c004c17"><path d="M 155.953125 221.125 L 159.332031 221.125 L 159.332031 224.507812 L 155.953125 224.507812 Z M 155.953125 221.125 " clip-rule="nonzero"/></clipPath><clipPath id="6220a070f1"><path d="M 157.644531 221.125 C 156.710938 221.125 155.953125 221.882812 155.953125 222.816406 C 155.953125 223.75 156.710938 224.507812 157.644531 224.507812 C 158.578125 224.507812 159.332031 223.75 159.332031 222.816406 C 159.332031 221.882812 158.578125 221.125 157.644531 221.125 Z M 157.644531 221.125 " clip-rule="nonzero"/></clipPath><clipPath id="5b5de33eae"><path d="M 161.566406 257.804688 L 168.5625 257.804688 L 168.5625 264.804688 L 161.566406 264.804688 Z M 161.566406 257.804688 " clip-rule="nonzero"/></clipPath><clipPath id="1905347d85"><path d="M 165.066406 257.804688 C 163.132812 257.804688 161.566406 259.371094 161.566406 261.304688 C 161.566406 263.238281 163.132812 264.804688 165.066406 264.804688 C 166.996094 264.804688 168.5625 263.238281 168.5625 261.304688 C 168.5625 259.371094 166.996094 257.804688 165.066406 257.804688 Z M 165.066406 257.804688 " clip-rule="nonzero"/></clipPath><clipPath id="bcf387234f"><path d="M 156.285156 192.457031 L 163.242188 192.457031 L 163.242188 199.414062 L 156.285156 199.414062 Z M 156.285156 192.457031 " clip-rule="nonzero"/></clipPath><clipPath id="d04c570cff"><path d="M 159.761719 192.457031 C 157.84375 192.457031 156.285156 194.015625 156.285156 195.9375 C 156.285156 197.859375 157.84375 199.414062 159.761719 199.414062 C 161.683594 199.414062 163.242188 197.859375 163.242188 195.9375 C 163.242188 194.015625 161.683594 192.457031 159.761719 192.457031 Z M 159.761719 192.457031 " clip-rule="nonzero"/></clipPath><clipPath id="cdcf02ae74"><path d="M 147 173 L 179 173 L 179 280 L 147 280 Z M 147 173 " clip-rule="nonzero"/></clipPath><clipPath id="923c937cf6"><path d="M 149.203125 172.878906 L 181.007812 279.222656 L 176.695312 280.511719 L 144.890625 174.167969 Z M 149.203125 172.878906 " clip-rule="nonzero"/></clipPath><clipPath id="8666efa279"><path d="M 149.203125 172.878906 L 181.007812 279.222656 L 176.695312 280.511719 L 144.890625 174.167969 Z M 149.203125 172.878906 " clip-rule="nonzero"/></clipPath></defs><g clip-path="url(#83cc822b5c)"><g clip-path="url(#164c187920)"><path fill="#dd7f5b" d="M 129.191406 172.496094 L 224.847656 172.496094 L 224.847656 268.152344 L 129.191406 268.152344 Z M 129.191406 172.496094 " fill-opacity="1" fill-rule="nonzero"/></g></g><path fill="#ffffff" d="M 188.757812 210 C 188.417969 210.003906 188.140625 210.285156 188.144531 210.628906 L 188.144531 211.503906 C 188.121094 211.859375 188.40625 212.164062 188.765625 212.164062 C 189.125 212.164062 189.40625 211.859375 189.382812 211.503906 L 189.382812 210.628906 C 189.386719 210.28125 189.105469 209.996094 188.757812 210 Z M 188.757812 210 " fill-opacity="1" fill-rule="nonzero"/><g clip-path="url(#96204d681b)"><path fill="#ffffff" d="M 190.777344 204.042969 C 184.0625 203.261719 177.582031 206.800781 174.589844 212.875 C 171.59375 218.953125 172.730469 226.269531 177.421875 231.140625 C 182.117188 236.015625 189.363281 237.40625 195.519531 234.617188 C 195.855469 234.488281 196.011719 234.105469 195.863281 233.78125 C 195.71875 233.457031 195.324219 233.324219 195.011719 233.492188 C 189.328125 236.066406 182.648438 234.785156 178.316406 230.285156 C 173.984375 225.777344 172.9375 219.039062 175.703125 213.425781 C 178.464844 207.8125 184.4375 204.554688 190.628906 205.277344 C 196.824219 205.996094 201.894531 210.542969 203.304688 216.640625 C 203.382812 216.972656 203.71875 217.179688 204.046875 217.101562 C 204.382812 217.023438 204.589844 216.695312 204.515625 216.359375 C 202.984375 209.757812 197.484375 204.824219 190.777344 204.042969 Z M 190.777344 204.042969 " fill-opacity="1" fill-rule="evenodd"/></g><path fill="#ffffff" d="M 188.839844 207.753906 C 183.492188 207.792969 178.78125 211.339844 177.25 216.484375 C 175.714844 221.621094 177.703125 227.175781 182.152344 230.15625 C 186.597656 233.140625 192.476562 232.871094 196.628906 229.480469 C 196.90625 229.265625 196.957031 228.867188 196.730469 228.59375 C 196.511719 228.324219 196.109375 228.289062 195.84375 228.523438 C 192.109375 231.570312 186.839844 231.8125 182.839844 229.128906 C 178.84375 226.445312 177.054688 221.460938 178.433594 216.832031 C 179.816406 212.203125 184.039062 209.027344 188.851562 208.996094 C 193.664062 208.957031 197.925781 212.070312 199.375 216.679688 C 199.476562 217.007812 199.824219 217.1875 200.152344 217.085938 C 200.480469 216.980469 200.664062 216.632812 200.558594 216.304688 C 198.945312 211.1875 194.191406 207.714844 188.839844 207.753906 Z M 188.839844 207.753906 " fill-opacity="1" fill-rule="evenodd"/><path fill="#ffffff" d="M 188.757812 227.851562 C 188.417969 227.851562 188.140625 228.136719 188.144531 228.476562 L 188.144531 229.355469 C 188.121094 229.710938 188.40625 230.011719 188.765625 230.011719 C 189.125 230.011719 189.40625 229.710938 189.382812 229.355469 L 189.382812 228.476562 C 189.386719 228.128906 189.105469 227.847656 188.757812 227.851562 Z M 188.757812 227.851562 " fill-opacity="1" fill-rule="nonzero"/><path fill="#ffffff" d="M 188.753906 213.324219 C 188.410156 213.328125 188.136719 213.609375 188.144531 213.957031 L 188.144531 219.992188 C 188.144531 220.332031 188.421875 220.613281 188.765625 220.609375 L 193 220.605469 C 193.355469 220.628906 193.660156 220.34375 193.660156 219.988281 C 193.660156 219.628906 193.355469 219.347656 193 219.371094 L 189.378906 219.371094 L 189.378906 213.957031 C 189.386719 213.605469 189.101562 213.320312 188.753906 213.324219 Z M 188.753906 213.324219 " fill-opacity="1" fill-rule="nonzero"/><g clip-path="url(#2b55b24e2d)"><path fill="#ffffff" d="M 197.492188 232.703125 L 215.597656 232.703125 L 214.65625 234.632812 C 214.5625 234.824219 214.375 234.800781 214.292969 234.800781 L 198.804688 234.800781 C 198.558594 234.800781 198.460938 234.6875 198.433594 234.632812 Z M 216.945312 221.613281 C 217.441406 221.632812 217.863281 221.78125 218.199219 222.023438 C 218.734375 222.40625 219.070312 223.039062 219.070312 223.929688 C 219.070312 225.6875 217.554688 227.628906 215.746094 228.160156 C 215.949219 227.460938 216.0625 226.714844 216.0625 225.9375 L 216.0625 221.710938 C 216.375 221.632812 216.671875 221.605469 216.945312 221.613281 Z M 199.140625 219.109375 L 213.949219 219.109375 C 214.730469 219.109375 214.824219 219.378906 214.824219 219.890625 L 214.824219 225.9375 C 214.824219 227.523438 214.3125 228.910156 213.441406 229.890625 C 212.570312 230.871094 211.34375 231.46875 209.785156 231.46875 L 203.304688 231.46875 C 201.746094 231.46875 200.519531 230.871094 199.648438 229.890625 C 198.777344 228.910156 198.265625 227.523438 198.265625 225.9375 L 198.265625 219.886719 C 198.265625 219.132812 198.652344 219.109375 199.140625 219.109375 Z M 199.140625 217.871094 C 198.511719 217.871094 197.957031 217.972656 197.550781 218.359375 C 197.140625 218.746094 197.03125 219.300781 197.03125 219.886719 L 197.03125 225.9375 C 197.03125 227.785156 197.628906 229.480469 198.722656 230.714844 C 198.972656 230.992188 199.257812 231.242188 199.558594 231.46875 L 197.332031 231.46875 C 197.078125 231.46875 196.816406 231.558594 196.632812 231.71875 C 196.445312 231.878906 196.339844 232.082031 196.289062 232.269531 C 196.183594 232.652344 196.230469 233.003906 196.398438 233.335938 L 197.332031 235.1875 C 197.402344 235.328125 197.527344 235.574219 197.785156 235.761719 C 198.046875 235.945312 198.398438 236.039062 198.804688 236.039062 L 214.289062 236.039062 C 214.695312 236.039062 215.042969 235.945312 215.300781 235.761719 C 215.5625 235.574219 215.691406 235.328125 215.761719 235.1875 L 216.695312 233.335938 C 216.863281 233.007812 216.910156 232.652344 216.804688 232.269531 C 216.695312 231.890625 216.257812 231.46875 215.757812 231.46875 L 213.53125 231.46875 C 213.832031 231.242188 214.117188 230.992188 214.363281 230.714844 C 214.660156 230.375 214.921875 230.007812 215.144531 229.609375 L 215.976562 229.382812 C 218.417969 228.730469 220.308594 226.382812 220.308594 223.929688 C 220.308594 222.703125 219.789062 221.644531 218.917969 221.019531 C 218.148438 220.460938 217.136719 220.257812 216.0625 220.445312 L 216.0625 219.886719 C 216.0625 219.300781 215.945312 218.746094 215.539062 218.359375 C 215.128906 217.972656 214.574219 217.871094 213.949219 217.871094 Z M 199.140625 217.871094 " fill-opacity="1" fill-rule="nonzero"/></g><path fill="#ffffff" d="M 200.585938 221.734375 C 200.246094 221.738281 199.96875 222.023438 199.976562 222.363281 L 199.976562 225.699219 C 199.976562 226.886719 200.1875 227.972656 201.015625 228.804688 C 201.253906 229.0625 201.65625 229.070312 201.90625 228.824219 C 202.152344 228.574219 202.148438 228.167969 201.890625 227.929688 C 201.355469 227.398438 201.21875 226.757812 201.21875 225.703125 L 201.21875 222.363281 C 201.222656 222.011719 200.9375 221.730469 200.585938 221.734375 Z M 200.585938 221.734375 " fill-opacity="1" fill-rule="nonzero"/><path fill="#ffffff" d="M 180.921875 220 C 180.914062 219.660156 180.632812 219.382812 180.292969 219.390625 L 179.417969 219.390625 C 179.0625 219.363281 178.757812 219.648438 178.757812 220.007812 C 178.757812 220.367188 179.0625 220.648438 179.417969 220.625 L 180.292969 220.625 C 180.640625 220.628906 180.925781 220.347656 180.921875 220 Z M 180.921875 220 " fill-opacity="1" fill-rule="nonzero"/><path fill="#ffffff" d="M 195.84375 227.078125 C 196.082031 226.832031 196.078125 226.441406 195.832031 226.199219 L 195.214844 225.582031 C 194.980469 225.3125 194.5625 225.300781 194.308594 225.550781 C 194.058594 225.804688 194.070312 226.222656 194.339844 226.457031 L 194.957031 227.074219 C 195.199219 227.324219 195.601562 227.328125 195.84375 227.078125 Z M 195.84375 227.078125 " fill-opacity="1" fill-rule="nonzero"/><path fill="#ffffff" d="M 183.222656 214.457031 C 183.460938 214.210938 183.457031 213.816406 183.210938 213.578125 L 182.589844 212.960938 C 182.355469 212.691406 181.941406 212.675781 181.6875 212.929688 C 181.433594 213.183594 181.449219 213.597656 181.71875 213.832031 L 182.335938 214.453125 C 182.578125 214.703125 182.980469 214.707031 183.222656 214.457031 Z M 183.222656 214.457031 " fill-opacity="1" fill-rule="nonzero"/><path fill="#ffffff" d="M 195.835938 212.925781 C 195.589844 212.6875 195.195312 212.691406 194.957031 212.9375 L 194.339844 213.558594 C 194.070312 213.792969 194.058594 214.207031 194.308594 214.460938 C 194.5625 214.714844 194.980469 214.699219 195.214844 214.429688 L 195.832031 213.8125 C 196.082031 213.570312 196.082031 213.171875 195.835938 212.925781 Z M 195.835938 212.925781 " fill-opacity="1" fill-rule="nonzero"/><path fill="#ffffff" d="M 183.214844 225.546875 C 182.96875 225.308594 182.574219 225.3125 182.335938 225.558594 L 181.71875 226.179688 C 181.449219 226.414062 181.433594 226.832031 181.6875 227.082031 C 181.941406 227.335938 182.355469 227.320312 182.589844 227.050781 L 183.210938 226.433594 C 183.460938 226.191406 183.460938 225.789062 183.214844 225.546875 Z M 183.214844 225.546875 " fill-opacity="1" fill-rule="nonzero"/><g clip-path="url(#5db2edbfa9)"><g clip-path="url(#ab69836783)"><g clip-path="url(#81b26131ed)"><path fill="#ffffff" d="M 156.011719 273.554688 C 156.773438 273.257812 157.148438 272.402344 156.851562 271.644531 C 149.976562 254.054688 150.140625 233.941406 157.296875 216.460938 C 164.453125 198.984375 178.441406 184.53125 195.675781 176.8125 C 196.421875 176.476562 196.753906 175.605469 196.421875 174.859375 C 196.085938 174.117188 195.214844 173.785156 194.472656 174.117188 C 190.277344 175.996094 186.273438 178.253906 182.496094 180.851562 C 170.136719 189.34375 160.265625 201.421875 154.5625 215.34375 C 147.125 233.515625 146.957031 254.429688 154.101562 272.71875 C 154.398438 273.476562 155.253906 273.851562 156.011719 273.554688 Z M 156.011719 273.554688 " fill-opacity="1" fill-rule="nonzero"/></g></g></g><g clip-path="url(#6cb0c3149a)"><g clip-path="url(#9df06de4b0)"><path fill="#ffffff" d="M 146.671875 206.34375 L 154.398438 206.34375 L 154.398438 214.070312 L 146.671875 214.070312 Z M 146.671875 206.34375 " fill-opacity="1" fill-rule="nonzero"/></g></g><g clip-path="url(#3d8c09e6e7)"><g clip-path="url(#24be99a79d)"><path fill="#ffffff" d="M 145.253906 188.839844 L 149.382812 188.839844 L 149.382812 192.96875 L 145.253906 192.96875 Z M 145.253906 188.839844 " fill-opacity="1" fill-rule="nonzero"/></g></g><g clip-path="url(#eedc1f5a64)"><g clip-path="url(#e430fffcf4)"><path fill="#ffffff" d="M 140 242.078125 L 145.695312 242.078125 L 145.695312 247.773438 L 140 247.773438 Z M 140 242.078125 " fill-opacity="1" fill-rule="nonzero"/></g></g><g clip-path="url(#769c004c17)"><g clip-path="url(#6220a070f1)"><path fill="#ffffff" d="M 155.953125 221.125 L 159.332031 221.125 L 159.332031 224.507812 L 155.953125 224.507812 Z M 155.953125 221.125 " fill-opacity="1" fill-rule="nonzero"/></g></g><g clip-path="url(#5b5de33eae)"><g clip-path="url(#1905347d85)"><path fill="#ffffff" d="M 161.566406 257.804688 L 168.5625 257.804688 L 168.5625 264.804688 L 161.566406 264.804688 Z M 161.566406 257.804688 " fill-opacity="1" fill-rule="nonzero"/></g></g><g clip-path="url(#bcf387234f)"><g clip-path="url(#d04c570cff)"><path fill="#ffffff" d="M 156.285156 192.457031 L 163.242188 192.457031 L 163.242188 199.414062 L 156.285156 199.414062 Z M 156.285156 192.457031 " fill-opacity="1" fill-rule="nonzero"/></g></g><g clip-path="url(#cdcf02ae74)"><g clip-path="url(#923c937cf6)"><g clip-path="url(#8666efa279)"><path fill="#ffffff" d="M 176.554688 277.664062 L 176.019531 275.875 C 175.820312 275.214844 175.640625 274.523438 175.417969 273.871094 C 175.261719 273.351562 175.0625 272.847656 174.859375 272.34375 C 174.65625 271.839844 174.492188 271.375 174.320312 270.886719 C 174.054688 270.167969 173.8125 269.445312 173.570312 268.722656 C 173.292969 267.878906 173 267.070312 172.722656 266.226562 C 172.542969 265.714844 172.386719 265.199219 172.210938 264.6875 C 171.980469 264.007812 171.769531 263.300781 171.519531 262.632812 C 171.304688 262.003906 171.042969 261.386719 170.828125 260.757812 C 170.65625 260.269531 170.507812 259.777344 170.332031 259.265625 C 170.238281 258.957031 170.101562 258.664062 170.007812 258.359375 C 169.890625 257.878906 169.695312 257.398438 169.578125 256.921875 C 169.582031 256.84375 169.558594 256.773438 169.585938 256.6875 C 169.589844 256.609375 169.589844 256.53125 169.539062 256.445312 C 169.273438 255.984375 169.101562 255.496094 169.015625 254.957031 C 168.976562 254.816406 168.925781 254.652344 168.882812 254.511719 C 168.699219 253.898438 168.484375 253.269531 168.300781 252.65625 C 168.167969 252.207031 168.035156 251.757812 167.902344 251.3125 C 167.738281 250.769531 167.578125 250.226562 167.445312 249.703125 C 167.199219 248.796875 166.925781 247.878906 166.679688 246.976562 C 166.488281 246.238281 166.269531 245.507812 166.097656 244.761719 C 165.890625 243.902344 165.699219 243.007812 165.507812 242.113281 C 165.386719 241.613281 165.261719 241.109375 165.128906 240.585938 C 164.929688 239.746094 164.730469 238.90625 164.53125 238.066406 C 164.367188 237.34375 164.203125 236.625 164.039062 235.902344 C 163.996094 235.761719 163.929688 235.628906 163.886719 235.484375 C 163.765625 235.085938 163.648438 234.683594 163.550781 234.277344 C 163.367188 233.40625 163.074219 232.597656 162.84375 231.742188 C 162.738281 231.386719 162.648438 231.003906 162.566406 230.640625 C 162.433594 230.195312 162.296875 229.746094 162.1875 229.292969 C 162.101562 229.007812 162.058594 228.6875 161.972656 228.40625 C 161.828125 227.832031 161.691406 227.285156 161.519531 226.71875 C 161.253906 225.742188 160.972656 224.800781 160.730469 223.820312 C 160.566406 223.097656 160.308594 222.40625 160.121094 221.691406 C 159.945312 221.101562 159.816406 220.5 159.644531 219.933594 C 159.484375 219.390625 159.304688 218.878906 159.121094 218.34375 C 159.054688 218.210938 159.035156 218.0625 159.015625 217.914062 C 158.972656 217.59375 158.871094 217.261719 158.757812 216.964844 C 158.625 216.515625 158.511719 216.0625 158.378906 215.613281 C 158.203125 215.023438 158.027344 214.433594 157.851562 213.84375 C 157.746094 213.492188 157.65625 213.105469 157.550781 212.753906 C 157.464844 212.472656 157.378906 212.1875 157.296875 211.90625 C 157.054688 211.105469 156.824219 210.324219 156.65625 209.503906 C 156.566406 209.042969 156.378906 208.585938 156.246094 208.136719 C 156.085938 207.515625 155.957031 206.914062 155.796875 206.292969 C 155.636719 205.671875 155.445312 205.113281 155.292969 204.519531 C 155.140625 203.921875 154.980469 203.300781 154.828125 202.707031 C 154.742188 202.242188 154.621094 201.765625 154.464844 201.324219 C 154.351562 200.945312 154.246094 200.59375 154.179688 200.203125 C 154.019531 199.582031 153.867188 198.984375 153.710938 198.367188 C 153.621094 197.902344 153.480469 197.433594 153.347656 196.984375 C 153.269531 196.726562 153.222656 196.484375 153.199219 196.234375 C 153.183594 196.1875 153.21875 196.125 153.1875 196.109375 C 152.953125 195.84375 152.996094 195.472656 152.90625 195.164062 C 152.75 194.648438 152.636719 194.089844 152.480469 193.570312 C 152.367188 193.195312 152.253906 192.816406 152.140625 192.441406 C 151.992188 191.945312 151.875 191.464844 151.730469 190.972656 C 151.601562 190.546875 151.503906 190.140625 151.402344 189.707031 C 151.367188 189.589844 151.363281 189.488281 151.328125 189.371094 C 151.386719 188.96875 151.296875 188.585938 151.207031 188.199219 C 151.054688 187.605469 150.902344 187.007812 150.75 186.410156 C 150.621094 185.988281 150.480469 185.59375 150.351562 185.167969 C 150.296875 184.980469 150.28125 184.753906 150.222656 184.566406 C 150.125 184.234375 150.019531 183.882812 149.921875 183.550781 C 149.871094 183.386719 149.867188 183.207031 149.828125 183.066406 C 149.75 182.808594 149.664062 182.523438 149.585938 182.265625 C 149.480469 181.910156 149.421875 181.542969 149.324219 181.214844 C 149.273438 181.046875 149.21875 180.859375 149.167969 180.695312 C 149.054688 180.316406 148.9375 179.917969 148.871094 179.527344 C 148.789062 179.164062 148.664062 178.84375 148.558594 178.488281 C 148.410156 177.992188 148.316406 177.507812 148.171875 177.011719 C 148.070312 176.683594 147.980469 176.375 147.882812 176.046875 C 147.839844 175.90625 147.726562 175.785156 147.832031 175.625 C 147.863281 175.5625 147.851562 175.515625 147.84375 175.492188 C 147.578125 175.210938 147.59375 174.824219 147.515625 174.488281 C 147.394531 173.90625 147.714844 173.347656 148.273438 173.15625 C 148.398438 173.144531 148.53125 173.15625 148.671875 173.191406 C 148.941406 173.238281 149.074219 173.507812 149.316406 173.640625 C 149.417969 173.710938 149.441406 173.882812 149.476562 174.003906 C 149.570312 174.308594 149.636719 174.621094 149.722656 174.90625 C 149.9375 175.714844 150.148438 176.5 150.363281 177.308594 C 150.441406 177.566406 150.550781 177.84375 150.609375 178.132812 C 150.675781 178.34375 150.714844 178.5625 150.746094 178.757812 C 150.863281 179.316406 151 179.863281 151.140625 180.414062 C 151.1875 180.578125 151.269531 180.761719 151.316406 180.925781 C 151.535156 181.65625 151.730469 182.394531 151.925781 183.132812 C 151.988281 183.34375 151.976562 183.554688 152.039062 183.765625 C 152.082031 183.90625 152.148438 184.042969 152.1875 184.183594 C 152.21875 184.277344 152.238281 184.347656 152.265625 184.441406 C 152.257812 184.675781 152.324219 184.886719 152.457031 185.078125 C 152.464844 185.101562 152.472656 185.125 152.476562 185.148438 C 152.433594 185.597656 152.648438 185.972656 152.742188 186.378906 C 152.839844 186.789062 152.945312 187.140625 153.011719 187.53125 C 153.078125 187.921875 153.242188 188.308594 153.355469 188.6875 C 153.40625 188.851562 153.433594 189.023438 153.480469 189.1875 C 153.53125 189.355469 153.574219 189.496094 153.613281 189.636719 C 153.65625 189.777344 153.675781 189.925781 153.71875 190.070312 C 153.808594 190.375 153.753906 190.699219 153.9375 190.976562 C 154.058594 191.199219 154.128906 191.4375 154.152344 191.683594 C 154.195312 192.007812 154.304688 192.28125 154.347656 192.601562 C 154.410156 193.070312 154.527344 193.550781 154.6875 193.992188 C 154.882812 194.652344 155.082031 195.3125 155.246094 195.953125 C 155.371094 196.535156 155.546875 197.125 155.738281 197.683594 L 155.746094 197.707031 C 155.828125 198.503906 156.15625 199.25 156.289062 200.035156 C 156.40625 200.511719 156.523438 200.992188 156.6875 201.457031 C 156.867188 202.144531 157.074219 202.828125 157.230469 203.527344 C 157.347656 204.007812 157.417969 204.5 157.582031 204.964844 C 157.804688 205.617188 157.929688 206.296875 158.128906 206.957031 C 158.199219 207.191406 158.246094 207.4375 158.316406 207.671875 C 158.363281 207.835938 158.390625 208.007812 158.386719 208.164062 C 158.433594 208.40625 158.496094 208.617188 158.589844 208.847656 C 158.71875 209.273438 158.84375 209.695312 158.949219 210.128906 C 159.007812 210.417969 159.101562 210.722656 159.183594 211.007812 C 159.230469 211.070312 159.257812 211.164062 159.277344 211.234375 C 159.441406 212.035156 159.71875 212.796875 159.929688 213.582031 C 160.050781 213.984375 160.144531 214.390625 160.265625 214.792969 C 160.34375 215.050781 160.4375 215.28125 160.539062 215.53125 C 160.675781 215.902344 160.640625 216.296875 160.792969 216.636719 C 160.902344 216.835938 160.957031 217.023438 161.023438 217.238281 C 161.109375 217.699219 161.28125 218.109375 161.347656 218.578125 C 161.421875 218.914062 161.519531 219.246094 161.648438 219.589844 C 161.847656 220.25 162.0625 220.878906 162.234375 221.546875 C 162.371094 221.917969 162.460938 222.300781 162.503906 222.699219 C 162.515625 222.746094 162.53125 222.792969 162.542969 222.839844 C 162.859375 223.464844 162.933594 224.136719 163.128906 224.796875 C 163.3125 225.410156 163.402344 226.050781 163.617188 226.679688 C 163.835938 227.335938 163.894531 228.035156 164.113281 228.691406 C 164.242188 229.113281 164.390625 229.53125 164.496094 229.960938 C 164.605469 230.339844 164.667969 230.707031 164.777344 231.085938 C 164.835938 231.273438 164.914062 231.453125 164.972656 231.644531 C 165.027344 231.832031 165.046875 231.980469 165.078125 232.175781 C 165.109375 232.269531 165.136719 232.363281 165.164062 232.457031 C 165.191406 232.554688 165.234375 232.695312 165.183594 232.785156 C 165.113281 232.886719 165.128906 233.035156 165.230469 233.105469 C 165.230469 233.105469 165.238281 233.128906 165.261719 233.125 C 165.480469 233.261719 165.503906 233.511719 165.542969 233.730469 C 165.636719 234.039062 165.710938 234.375 165.78125 234.6875 C 165.800781 234.757812 165.796875 234.835938 165.820312 234.90625 C 165.808594 234.960938 165.824219 235.007812 165.832031 235.03125 L 166.214844 236.226562 C 166.25 236.347656 166.277344 236.441406 166.289062 236.566406 C 166.324219 236.761719 166.355469 236.957031 166.40625 237.121094 C 166.507812 237.550781 166.664062 237.992188 166.746094 238.433594 C 166.847656 239.121094 167.070312 239.773438 167.21875 240.445312 C 167.261719 240.589844 167.257812 240.742188 167.277344 240.890625 C 167.324219 241.136719 167.421875 241.386719 167.5 241.648438 C 167.578125 241.984375 167.652344 242.320312 167.742188 242.628906 C 167.804688 242.917969 167.863281 243.207031 167.949219 243.488281 C 168.0625 243.867188 168.144531 244.226562 168.210938 244.617188 C 168.273438 244.910156 168.347656 245.167969 168.457031 245.445312 C 168.570312 245.820312 168.628906 246.1875 168.742188 246.566406 L 169.011719 247.640625 C 169.054688 247.78125 169.097656 247.921875 169.113281 248.070312 C 169.242188 248.675781 169.46875 249.25 169.636719 249.816406 C 169.707031 250.050781 169.753906 250.292969 169.832031 250.554688 C 169.957031 250.976562 170.101562 251.371094 170.230469 251.796875 C 170.242188 251.921875 170.257812 252.070312 170.269531 252.195312 C 170.269531 252.273438 170.28125 252.320312 170.328125 252.382812 C 170.535156 252.730469 170.671875 253.101562 170.738281 253.492188 C 170.796875 253.859375 170.90625 254.238281 171.085938 254.570312 C 171.214844 254.839844 171.300781 255.121094 171.308594 255.402344 C 171.339844 255.597656 171.390625 255.761719 171.46875 255.945312 C 171.714844 256.769531 171.945312 257.625 172.265625 258.429688 C 172.421875 258.871094 172.554688 259.316406 172.738281 259.753906 C 172.902344 260.136719 173 260.546875 173.136719 260.917969 C 173.320312 261.453125 173.507812 261.988281 173.699219 262.546875 C 173.851562 262.960938 173.953125 263.394531 174.105469 263.8125 C 174.296875 264.371094 174.492188 264.929688 174.707031 265.480469 C 174.863281 265.921875 175.023438 266.363281 175.15625 266.808594 L 175.851562 268.964844 C 175.988281 269.335938 176.085938 269.742188 176.25 270.128906 C 176.363281 270.503906 176.53125 270.890625 176.691406 271.253906 C 176.824219 271.523438 176.914062 271.832031 176.976562 272.121094 C 177.089844 272.496094 177.230469 272.890625 177.367188 273.261719 C 177.535156 273.648438 177.648438 274.023438 177.71875 274.441406 C 177.753906 274.636719 177.769531 274.863281 177.753906 275.070312 C 177.769531 275.117188 177.765625 275.195312 177.804688 275.238281 C 178.109375 275.480469 178.113281 275.835938 178.226562 276.136719 C 178.421875 276.617188 178.578125 277.136719 178.679688 277.644531 C 178.757812 277.90625 178.804688 278.148438 178.832031 278.421875 C 178.816406 278.707031 178.871094 278.976562 178.886719 279.277344 C 178.878906 279.691406 178.253906 280.085938 177.894531 279.832031 C 177.695312 279.6875 177.472656 279.625 177.308594 279.417969 C 177.167969 279.203125 177.042969 278.957031 176.949219 278.726562 C 176.828125 278.40625 176.695312 278.058594 176.574219 277.734375 Z M 176.554688 277.664062 " fill-opacity="1" fill-rule="nonzero"/></g></g></g><g fill="#dd7f5b" fill-opacity="1"><g transform="translate(244.240596, 242.821736)"><g><path d="M 18.21875 -47.734375 C 20.351562 -47.734375 22.191406 -47.515625 23.734375 -47.078125 C 25.273438 -46.648438 26.972656 -46.050781 28.828125 -45.28125 C 29.460938 -45.007812 30.070312 -44.769531 30.65625 -44.5625 C 31.25 -44.363281 31.75 -44.265625 32.15625 -44.265625 C 32.882812 -44.265625 33.472656 -44.554688 33.921875 -45.140625 C 34.378906 -45.734375 34.609375 -46.597656 34.609375 -47.734375 L 35.90625 -47.734375 L 35.90625 -32.640625 L 34.609375 -32.640625 C 34.160156 -35.046875 33.1875 -37.195312 31.6875 -39.09375 C 30.1875 -41 28.328125 -42.472656 26.109375 -43.515625 C 23.890625 -44.554688 21.507812 -45.078125 18.96875 -45.078125 C 16.207031 -45.078125 13.941406 -44.410156 12.171875 -43.078125 C 10.398438 -41.742188 9.515625 -40.078125 9.515625 -38.078125 C 9.515625 -36.585938 10.035156 -35.316406 11.078125 -34.265625 C 12.117188 -33.222656 13.421875 -32.363281 14.984375 -31.6875 C 16.554688 -31.007812 18.722656 -30.21875 21.484375 -29.3125 C 24.253906 -28.40625 26.566406 -27.566406 28.421875 -26.796875 C 30.285156 -26.023438 31.914062 -25.070312 33.3125 -23.9375 C 34.90625 -22.625 36.210938 -21.0625 37.234375 -19.25 C 38.253906 -17.4375 38.765625 -15.394531 38.765625 -13.125 C 38.765625 -10.351562 38.015625 -7.898438 36.515625 -5.765625 C 35.015625 -3.640625 32.914062 -1.988281 30.21875 -0.8125 C 27.53125 0.363281 24.414062 0.953125 20.875 0.953125 C 18.65625 0.953125 16.785156 0.757812 15.265625 0.375 C 13.742188 -0.0078125 12.191406 -0.519531 10.609375 -1.15625 C 9.109375 -1.789062 8 -2.109375 7.28125 -2.109375 C 6.457031 -2.109375 5.75 -1.859375 5.15625 -1.359375 C 4.570312 -0.859375 4.054688 -0.0859375 3.609375 0.953125 L 2.3125 0.953125 L 2.3125 -16.1875 L 3.609375 -16.1875 C 4.421875 -11.65625 6.359375 -8.0625 9.421875 -5.40625 C 12.484375 -2.75 16.1875 -1.421875 20.53125 -1.421875 C 23.800781 -1.421875 26.382812 -2.085938 28.28125 -3.421875 C 30.1875 -4.765625 31.140625 -6.570312 31.140625 -8.84375 C 31.140625 -10.601562 30.582031 -12.09375 29.46875 -13.3125 C 28.363281 -14.539062 26.984375 -15.539062 25.328125 -16.3125 C 23.671875 -17.082031 21.4375 -17.945312 18.625 -18.90625 C 15.132812 -20.125 12.3125 -21.265625 10.15625 -22.328125 C 8.007812 -23.398438 6.175781 -24.898438 4.65625 -26.828125 C 3.132812 -28.753906 2.375 -31.191406 2.375 -34.140625 C 2.375 -36.722656 3.050781 -39.046875 4.40625 -41.109375 C 5.769531 -43.171875 7.65625 -44.789062 10.0625 -45.96875 C 12.46875 -47.144531 15.1875 -47.734375 18.21875 -47.734375 Z M 18.21875 -47.734375 "/></g></g></g><g fill="#dd7f5b" fill-opacity="1"><g transform="translate(285.307889, 242.821736)"><g><path d="M 19.71875 -45.484375 C 18.21875 -45.484375 17.1875 -45.289062 16.625 -44.90625 C 16.0625 -44.53125 15.78125 -43.84375 15.78125 -42.84375 C 15.78125 -42.34375 15.890625 -41.695312 16.109375 -40.90625 C 16.335938 -40.113281 16.65625 -39.191406 17.0625 -38.140625 L 26.109375 -14.890625 L 33.53125 -32.5 L 31.078125 -39.09375 C 30.171875 -41.5 29.21875 -43.164062 28.21875 -44.09375 C 27.21875 -45.019531 25.835938 -45.484375 24.078125 -45.484375 L 24.078125 -46.71875 L 45.96875 -46.71875 L 45.96875 -45.484375 L 45.15625 -45.484375 C 43.5625 -45.484375 42.484375 -45.289062 41.921875 -44.90625 C 41.359375 -44.53125 41.078125 -43.929688 41.078125 -43.109375 C 41.078125 -42.566406 41.253906 -41.75 41.609375 -40.65625 L 50.796875 -16.046875 L 58.8125 -37.46875 C 59.632812 -39.738281 60.046875 -41.460938 60.046875 -42.640625 C 60.046875 -44.535156 58.523438 -45.484375 55.484375 -45.484375 L 55.484375 -46.71875 L 66.578125 -46.71875 L 66.578125 -45.484375 C 65.804688 -45.347656 65.113281 -44.90625 64.5 -44.15625 C 63.882812 -43.414062 63.191406 -42.046875 62.421875 -40.046875 L 47.125 0.953125 L 45.96875 0.953125 L 34.75 -29.109375 L 22.296875 0.953125 L 21.015625 0.953125 L 4.828125 -40.9375 C 4.097656 -42.789062 3.484375 -44 2.984375 -44.5625 C 2.492188 -45.132812 1.75 -45.441406 0.75 -45.484375 L 0.75 -46.71875 L 19.71875 -46.71875 Z M 19.71875 -45.484375 "/></g></g></g><g fill="#dd7f5b" fill-opacity="1"><g transform="translate(352.620179, 242.821736)"><g><path d="M 25.09375 -45.484375 C 23.375 -45.441406 22.082031 -45.304688 21.21875 -45.078125 C 20.351562 -44.859375 19.691406 -44.335938 19.234375 -43.515625 C 18.785156 -42.703125 18.5625 -41.390625 18.5625 -39.578125 L 18.5625 -7.078125 C 18.5625 -5.304688 18.773438 -4.007812 19.203125 -3.1875 C 19.640625 -2.375 20.285156 -1.851562 21.140625 -1.625 C 22.003906 -1.40625 23.320312 -1.269531 25.09375 -1.21875 L 25.09375 0 L 1.15625 0 L 1.15625 -1.21875 C 2.875 -1.21875 4.164062 -1.332031 5.03125 -1.5625 C 5.894531 -1.789062 6.550781 -2.320312 7 -3.15625 C 7.457031 -4 7.6875 -5.304688 7.6875 -7.078125 L 7.6875 -39.578125 C 7.6875 -41.347656 7.457031 -42.648438 7 -43.484375 C 6.550781 -44.328125 5.882812 -44.859375 5 -45.078125 C 4.113281 -45.304688 2.832031 -45.441406 1.15625 -45.484375 L 1.15625 -46.71875 L 25.09375 -46.71875 Z M 25.09375 -45.484375 "/></g></g></g><g fill="#dd7f5b" fill-opacity="1"><g transform="translate(378.797176, 242.821736)"><g><path d="M 39.578125 -33.9375 L 38.359375 -33.9375 C 37.941406 -37.5625 36.800781 -40.175781 34.9375 -41.78125 C 33.082031 -43.394531 30.320312 -44.203125 26.65625 -44.203125 L 18.296875 -44.203125 L 18.296875 -24.75 L 20.125 -24.75 C 23.113281 -24.75 25.398438 -25.585938 26.984375 -27.265625 C 28.578125 -28.941406 29.441406 -31.390625 29.578125 -34.609375 L 30.9375 -34.609375 L 30.9375 -11.828125 L 29.578125 -11.828125 C 29.398438 -15.273438 28.492188 -17.867188 26.859375 -19.609375 C 25.222656 -21.359375 22.910156 -22.234375 19.921875 -22.234375 L 18.359375 -22.234375 L 18.359375 -7.078125 C 18.359375 -5.347656 18.5625 -4.085938 18.96875 -3.296875 C 19.375 -2.503906 20.050781 -1.972656 21 -1.703125 C 21.957031 -1.429688 23.4375 -1.269531 25.4375 -1.21875 L 25.4375 0 L 0.8125 0 L 0.8125 -1.21875 C 2.71875 -1.269531 4.125 -1.429688 5.03125 -1.703125 C 5.9375 -1.972656 6.570312 -2.503906 6.9375 -3.296875 C 7.300781 -4.085938 7.484375 -5.320312 7.484375 -7 L 7.484375 -39.578125 C 7.484375 -41.347656 7.253906 -42.648438 6.796875 -43.484375 C 6.347656 -44.328125 5.671875 -44.867188 4.765625 -45.109375 C 3.859375 -45.359375 2.539062 -45.484375 0.8125 -45.484375 L 0.8125 -46.71875 L 39.578125 -46.71875 Z M 39.578125 -33.9375 "/></g></g></g><g fill="#dd7f5b" fill-opacity="1"><g transform="translate(419.864469, 242.821736)"><g><path d="M 43.453125 -34.46875 L 42.234375 -34.46875 C 41.910156 -37.6875 40.898438 -40.113281 39.203125 -41.75 C 37.503906 -43.382812 35.566406 -44.203125 33.390625 -44.203125 L 28.078125 -44.203125 L 28.078125 -7.34375 C 28.078125 -5.664062 28.300781 -4.394531 28.75 -3.53125 C 29.207031 -2.675781 29.910156 -2.085938 30.859375 -1.765625 C 31.816406 -1.453125 33.160156 -1.269531 34.890625 -1.21875 L 34.890625 0 L 10.40625 0 L 10.40625 -1.21875 C 12.125 -1.21875 13.445312 -1.34375 14.375 -1.59375 C 15.3125 -1.84375 16.015625 -2.398438 16.484375 -3.265625 C 16.960938 -4.128906 17.203125 -5.441406 17.203125 -7.203125 L 17.203125 -44.203125 L 11.359375 -44.203125 C 9.316406 -44.203125 7.5 -43.304688 5.90625 -41.515625 C 4.320312 -39.722656 3.375 -37.375 3.0625 -34.46875 L 1.84375 -34.46875 L 1.84375 -46.71875 L 43.453125 -46.71875 Z M 43.453125 -34.46875 "/></g></g></g><g fill="#dd7f5b" fill-opacity="1"><g transform="translate(465.215285, 242.821736)"><g/></g></g><g fill="#dd7f5b" fill-opacity="1"><g transform="translate(482.213331, 242.821736)"><g><path d="M 43.71875 -34.0625 C 43.71875 -31.707031 43.015625 -29.566406 41.609375 -27.640625 C 40.210938 -25.710938 38.140625 -24.179688 35.390625 -23.046875 C 32.648438 -21.921875 29.375 -21.359375 25.5625 -21.359375 L 18.765625 -21.359375 L 18.765625 -7.078125 C 18.765625 -5.398438 18.976562 -4.148438 19.40625 -3.328125 C 19.84375 -2.515625 20.476562 -1.972656 21.3125 -1.703125 C 22.15625 -1.429688 23.367188 -1.269531 24.953125 -1.21875 L 24.953125 0 L 1.21875 0 L 1.21875 -1.21875 C 2.945312 -1.269531 4.265625 -1.421875 5.171875 -1.671875 C 6.078125 -1.921875 6.753906 -2.453125 7.203125 -3.265625 C 7.660156 -4.078125 7.890625 -5.347656 7.890625 -7.078125 L 7.890625 -40.046875 C 7.890625 -42.222656 7.34375 -43.671875 6.25 -44.390625 C 5.164062 -45.117188 3.488281 -45.484375 1.21875 -45.484375 L 1.21875 -46.71875 L 26.453125 -46.71875 C 29.265625 -46.71875 31.992188 -46.238281 34.640625 -45.28125 C 37.296875 -44.332031 39.472656 -42.90625 41.171875 -41 C 42.867188 -39.09375 43.71875 -36.78125 43.71875 -34.0625 Z M 32.03125 -33.859375 C 32.03125 -36.765625 31.578125 -38.960938 30.671875 -40.453125 C 29.765625 -41.953125 28.570312 -42.953125 27.09375 -43.453125 C 25.625 -43.953125 23.78125 -44.203125 21.5625 -44.203125 L 18.765625 -44.203125 L 18.765625 -23.875 L 23.1875 -23.875 C 25.726562 -23.875 27.835938 -24.664062 29.515625 -26.25 C 31.191406 -27.832031 32.03125 -30.367188 32.03125 -33.859375 Z M 32.03125 -33.859375 "/></g></g></g><g fill="#dd7f5b" fill-opacity="1"><g transform="translate(527.564136, 242.821736)"><g><path d="M 27.875 -47.734375 C 32.457031 -47.734375 36.675781 -46.757812 40.53125 -44.8125 C 44.382812 -42.863281 47.441406 -40.03125 49.703125 -36.3125 C 51.972656 -32.59375 53.109375 -28.21875 53.109375 -23.1875 C 53.109375 -18.695312 52.085938 -14.613281 50.046875 -10.9375 C 48.003906 -7.269531 45.078125 -4.367188 41.265625 -2.234375 C 37.460938 -0.109375 33.023438 0.953125 27.953125 0.953125 C 23.054688 0.953125 18.703125 -0.078125 14.890625 -2.140625 C 11.085938 -4.203125 8.117188 -7.066406 5.984375 -10.734375 C 3.847656 -14.410156 2.78125 -18.628906 2.78125 -23.390625 C 2.78125 -28.054688 3.859375 -32.238281 6.015625 -35.9375 C 8.171875 -39.632812 11.148438 -42.523438 14.953125 -44.609375 C 18.765625 -46.691406 23.070312 -47.734375 27.875 -47.734375 Z M 14.890625 -23.53125 C 14.890625 -19.90625 15.332031 -16.414062 16.21875 -13.0625 C 17.101562 -9.707031 18.507812 -6.925781 20.4375 -4.71875 C 22.363281 -2.519531 24.84375 -1.421875 27.875 -1.421875 C 30.507812 -1.421875 32.8125 -2.289062 34.78125 -4.03125 C 36.75 -5.78125 38.273438 -8.273438 39.359375 -11.515625 C 40.453125 -14.765625 41 -18.566406 41 -22.921875 C 41 -27.628906 40.46875 -31.671875 39.40625 -35.046875 C 38.34375 -38.429688 36.820312 -40.992188 34.84375 -42.734375 C 32.875 -44.484375 30.578125 -45.359375 27.953125 -45.359375 C 25.546875 -45.359375 23.351562 -44.550781 21.375 -42.9375 C 19.40625 -41.332031 17.832031 -38.882812 16.65625 -35.59375 C 15.476562 -32.3125 14.890625 -28.289062 14.890625 -23.53125 Z M 14.890625 -23.53125 "/></g></g></g><g fill="#dd7f5b" fill-opacity="1"><g transform="translate(583.521737, 242.821736)"><g><path d="M 18.21875 -47.734375 C 20.351562 -47.734375 22.191406 -47.515625 23.734375 -47.078125 C 25.273438 -46.648438 26.972656 -46.050781 28.828125 -45.28125 C 29.460938 -45.007812 30.070312 -44.769531 30.65625 -44.5625 C 31.25 -44.363281 31.75 -44.265625 32.15625 -44.265625 C 32.882812 -44.265625 33.472656 -44.554688 33.921875 -45.140625 C 34.378906 -45.734375 34.609375 -46.597656 34.609375 -47.734375 L 35.90625 -47.734375 L 35.90625 -32.640625 L 34.609375 -32.640625 C 34.160156 -35.046875 33.1875 -37.195312 31.6875 -39.09375 C 30.1875 -41 28.328125 -42.472656 26.109375 -43.515625 C 23.890625 -44.554688 21.507812 -45.078125 18.96875 -45.078125 C 16.207031 -45.078125 13.941406 -44.410156 12.171875 -43.078125 C 10.398438 -41.742188 9.515625 -40.078125 9.515625 -38.078125 C 9.515625 -36.585938 10.035156 -35.316406 11.078125 -34.265625 C 12.117188 -33.222656 13.421875 -32.363281 14.984375 -31.6875 C 16.554688 -31.007812 18.722656 -30.21875 21.484375 -29.3125 C 24.253906 -28.40625 26.566406 -27.566406 28.421875 -26.796875 C 30.285156 -26.023438 31.914062 -25.070312 33.3125 -23.9375 C 34.90625 -22.625 36.210938 -21.0625 37.234375 -19.25 C 38.253906 -17.4375 38.765625 -15.394531 38.765625 -13.125 C 38.765625 -10.351562 38.015625 -7.898438 36.515625 -5.765625 C 35.015625 -3.640625 32.914062 -1.988281 30.21875 -0.8125 C 27.53125 0.363281 24.414062 0.953125 20.875 0.953125 C 18.65625 0.953125 16.785156 0.757812 15.265625 0.375 C 13.742188 -0.0078125 12.191406 -0.519531 10.609375 -1.15625 C 9.109375 -1.789062 8 -2.109375 7.28125 -2.109375 C 6.457031 -2.109375 5.75 -1.859375 5.15625 -1.359375 C 4.570312 -0.859375 4.054688 -0.0859375 3.609375 0.953125 L 2.3125 0.953125 L 2.3125 -16.1875 L 3.609375 -16.1875 C 4.421875 -11.65625 6.359375 -8.0625 9.421875 -5.40625 C 12.484375 -2.75 16.1875 -1.421875 20.53125 -1.421875 C 23.800781 -1.421875 26.382812 -2.085938 28.28125 -3.421875 C 30.1875 -4.765625 31.140625 -6.570312 31.140625 -8.84375 C 31.140625 -10.601562 30.582031 -12.09375 29.46875 -13.3125 C 28.363281 -14.539062 26.984375 -15.539062 25.328125 -16.3125 C 23.671875 -17.082031 21.4375 -17.945312 18.625 -18.90625 C 15.132812 -20.125 12.3125 -21.265625 10.15625 -22.328125 C 8.007812 -23.398438 6.175781 -24.898438 4.65625 -26.828125 C 3.132812 -28.753906 2.375 -31.191406 2.375 -34.140625 C 2.375 -36.722656 3.050781 -39.046875 4.40625 -41.109375 C 5.769531 -43.171875 7.65625 -44.789062 10.0625 -45.96875 C 12.46875 -47.144531 15.1875 -47.734375 18.21875 -47.734375 Z M 18.21875 -47.734375 "/></g></g></g></svg>